# xmcd
#
# Track frame offsets:
#	150
#	16087
#	29395
#	44627
#	59246
#	72632
#	85564
#	105443
#	121300
#	133248
#	154414
#	167258
#	186440
#	199481
#	215265
#	230466
#	246640
#	262268
#	282970
#	298829
#
# Disc length: 4357 seconds
#
# Revision: 1
# Processed by: cddbd v1.5.2PL0 Copyright (c) Steve Scherf et al.
# Submitted via: EZCDAudioConverter 2.2.2.1
#
DISCID=3f110314
DTITLE=Buddy Richard - Edicion Especial
DYEAR=2009
DGENRE=Balada
TTITLE0=Tu Cariño Se Me Va
TTITLE1=Si Me Vas A Abandonar
TTITLE2=Amor Por Ti
TTITLE3=Te Necesito
TTITLE4=Buscare Otro Querer
TTITLE5=Ay Amor
TTITLE6=Mentira
TTITLE7=Angelitos Negros
TTITLE8=Esperame
TTITLE9=Por Ti
TTITLE10=Ahora Que Te Vas De Mi
TTITLE11=Me Quiero Disculpar
TTITLE12=Al Final De La Tarde
TTITLE13=Toma Mi Camino
TTITLE14=Tu Me Has Querido Tanto
TTITLE15=Balada De La Tristeza
TTITLE16=Hoja De Otoño
TTITLE17=No Quiero Seguir Perdiendo
TTITLE18=Con Mi Bombo Y Mi Chinchin
TTITLE19=Medley - Exitos De Oro
EXTD=
EXTT0=
EXTT1=
EXTT2=
EXTT3=
EXTT4=
EXTT5=
EXTT6=
EXTT7=
EXTT8=
EXTT9=
EXTT10=
EXTT11=
EXTT12=
EXTT13=
EXTT14=
EXTT15=
EXTT16=
EXTT17=
EXTT18=
EXTT19=
PLAYORDER=
